[Header]
FileType HTR
DataType HTRS
FileVersion 1
NumSegments 64
NumFrames 4
DataFrameRate 30
EulerRotationOrder ZYX
CalibrationUnits mm
RotationUnits Degrees
GlobalAxisofGravity Y
BoneLengthAxis Y
ScaleFactor 1.0
[SegmentNames&Hierarchy]
Hips	GLOBAL
Spine	Hips
Spine1	Spine
Spine2	Spine1
Neck	Spine2
Head	Neck
LeftEye	Head
RightEye	Head
LeftShoulder	Spine2
LeftArm	LeftShoulder
LeftForeArm	LeftArm
LeftHand	LeftForeArm
LeftHandThumb1	LeftHand
LeftHandThumb2	LeftHandThumb1
LeftHandThumb3	LeftHandThumb2
LeftHandThumb4	LeftHandThumb3
LeftHandIndex1	LeftHand
LeftHandIndex2	LeftHandIndex1
LeftHandIndex3	LeftHandIndex2
LeftHandIndex4	LeftHandIndex3
LeftHandMiddle1	LeftHand
LeftHandMiddle2	LeftHandMiddle1
LeftHandMiddle3	LeftHandMiddle2
LeftHandMiddle4	LeftHandMiddle3
LeftHandRing1	LeftHand
LeftHandRing2	LeftHandRing1
LeftHandRing3	LeftHandRing2
LeftHandRing4	LeftHandRing3
LeftHandPinky1	LeftHand
LeftHandPinky2	LeftHandPinky1
LeftHandPinky3	LeftHandPinky2
LeftHandPinky4	LeftHandPinky3
RightShoulder	Spine2
RightArm	RightShoulder
RightForeArm	RightArm
RightHand	RightForeArm
RightHandPinky1	RightHand
RightHandPinky2	RightHandPinky1
RightHandPinky3	RightHandPinky2
RightHandPinky4	RightHandPinky3
RightHandRing1	RightHand
RightHandRing2	RightHandRing1
RightHandRing3	RightHandRing2
RightHandRing4	RightHandRing3
RightHandMiddle1	RightHand
RightHandMiddle2	RightHandMiddle1
RightHandMiddle3	RightHandMiddle2
RightHandMiddle4	RightHandMiddle3
RightHandIndex1	RightHand
RightHandIndex2	RightHandIndex1
RightHandIndex3	RightHandIndex2
RightHandIndex4	RightHandIndex3
RightHandThumb1	RightHand
RightHandThumb2	RightHandThumb1
RightHandThumb3	RightHandThumb2
RightHandThumb4	RightHandThumb3
LeftUpLeg	Hips
LeftLeg	LeftUpLeg
LeftFoot	LeftLeg
LeftToeBase	LeftFoot
RightUpLeg	Hips
RightLeg	RightUpLeg
RightFoot	RightLeg
RightToeBase	RightFoot
[BasePosition]
Hips	0	0	0	0	0	0	1
Spine	0	0	0	0	0	0	1
Spine1	0	0	0	0	0	0	1
Spine2	0	0	0	0	0	0	1
Neck	0	0	0	0	0	0	1
Head	0	0	0	0	0	0	1
LeftEye	0	0	0	0	0	0	1
RightEye	0	0	0	0	0	0	1
LeftShoulder	0	0	0	0	0	0	1
LeftArm	0	0	0	0	0	0	1
LeftForeArm	0	0	0	0	0	0	1
LeftHand	0	0	0	0	0	0	1
LeftHandThumb1	0	0	0	0	0	0	1
LeftHandThumb2	0	0	0	0	0	0	1
LeftHandThumb3	0	0	0	0	0	0	1
LeftHandThumb4	0	0	0	0	0	0	1
LeftHandIndex1	0	0	0	0	0	0	1
LeftHandIndex2	0	0	0	0	0	0	1
LeftHandIndex3	0	0	0	0	0	0	1
LeftHandIndex4	0	0	0	0	0	0	1
LeftHandMiddle1	0	0	0	0	0	0	1
LeftHandMiddle2	0	0	0	0	0	0	1
LeftHandMiddle3	0	0	0	0	0	0	1
LeftHandMiddle4	0	0	0	0	0	0	1
LeftHandRing1	0	0	0	0	0	0	1
LeftHandRing2	0	0	0	0	0	0	1
LeftHandRing3	0	0	0	0	0	0	1
LeftHandRing4	0	0	0	0	0	0	1
LeftHandPinky1	0	0	0	0	0	0	1
LeftHandPinky2	0	0	0	0	0	0	1
LeftHandPinky3	0	0	0	0	0	0	1
LeftHandPinky4	0	0	0	0	0	0	1
RightShoulder	0	0	0	0	0	0	1
RightArm	0	0	0	0	0	0	1
RightForeArm	0	0	0	0	0	0	1
RightHand	0	0	0	0	0	0	1
RightHandPinky1	0	0	0	0	0	0	1
RightHandPinky2	0	0	0	0	0	0	1
RightHandPinky3	0	0	0	0	0	0	1
RightHandPinky4	0	0	0	0	0	0	1
RightHandRing1	0	0	0	0	0	0	1
RightHandRing2	0	0	0	0	0	0	1
RightHandRing3	0	0	0	0	0	0	1
RightHandRing4	0	0	0	0	0	0	1
RightHandMiddle1	0	0	0	0	0	0	1
RightHandMiddle2	0	0	0	0	0	0	1
RightHandMiddle3	0	0	0	0	0	0	1
RightHandMiddle4	0	0	0	0	0	0	1
RightHandIndex1	0	0	0	0	0	0	1
RightHandIndex2	0	0	0	0	0	0	1
RightHandIndex3	0	0	0	0	0	0	1
RightHandIndex4	0	0	0	0	0	0	1
RightHandThumb1	0	0	0	0	0	0	1
RightHandThumb2	0	0	0	0	0	0	1
RightHandThumb3	0	0	0	0	0	0	1
RightHandThumb4	0	0	0	0	0	0	1
LeftUpLeg	0	0	0	0	0	0	1
LeftLeg	0	0	0	0	0	0	1
LeftFoot	0	0	0	0	0	0	1
LeftToeBase	0	0	0	0	0	0	1
RightUpLeg	0	0	0	0	0	0	1
RightLeg	0	0	0	0	0	0	1
RightFoot	0	0	0	0	0	0	1
RightToeBase	0	0	0	0	0	0	1
[Hips]
359	829.9005127	873.454895	516.519104	204.655426	-79.31822205	-575.7254028	1.0
360	833.4221191	866.7528687	533.7271729	200.59198	-76.40299988	-572.8070679	1.0
361	832.340332	871.4603271	545.2642212	193.4318542	-74.56433105	-566.234314	1.0
362	827.4096069	888.3553467	545.3062744	193.5523682	-76.03884888	-565.6843262	1.0
[Spine]
359	0	101.8159943	1.315000057	15.78925133	0.3306846619	-25.83383179	1.0
360	0	101.8159943	1.315000057	16.94755554	3.363500118	-23.06964684	1.0
361	0	101.8159943	1.315000057	18.62965393	4.12537384	-19.18095207	1.0
362	0	101.8159943	1.315000057	19.41772842	1.702914953	-19.13726044	1.0
[Spine1]
359	0	100.8349991	-10.00800037	2.415437698	-0.5771083832	-0.7422406077	1.0
360	0	100.8349991	-10.00800037	2.874050856	-0.01186031848	-2.682358265	1.0
361	0	100.8349991	-10.00800037	2.322101355	0.3012742102	-3.772213936	1.0
362	0	100.8349991	-10.00800037	1.66752553	-0.09162057191	-2.780852556	1.0
[Spine2]
359	0	91	-13.73399925	2.440508604	-0.4852446318	-0.7426572442	1.0
360	0	91	-13.73399925	2.873238325	0.02880405821	-2.682694435	1.0
361	0	91	-13.73399925	2.326535463	0.2547387779	-3.773813486	1.0
362	0	91	-13.73399925	1.6693542	-0.1313165575	-2.779092789	1.0
[Neck]
359	0	166.7169952	-25.16200066	-3.70556879	1.898770571	-0.9636499882	1.0
360	0	166.7169952	-25.16200066	-4.426136971	1.687731743	-1.582294464	1.0
361	0	166.7169952	-25.16200066	-3.672929525	2.044519901	-2.219806433	1.0
362	0	166.7169952	-25.16200066	-2.800956964	2.680079222	-2.716492891	1.0
[Head]
359	0	96.17900085	16.84999847	3.022679329	6.177643776	11.23037052	1.0
360	0	96.17900085	16.84999847	0.726328969	4.804298401	11.41709995	1.0
361	0	96.17900085	16.84999847	-1.085425854	6.078103065	10.06245136	1.0
362	0	96.17900085	16.84999847	-0.9567741156	8.52752018	9.153759956	1.0
[LeftEye]
359	30.6760006	64.09500122	92.83599854	0	0	0	1.0
360	30.6760006	64.09500122	92.83599854	0	0	0	1.0
361	30.6760006	64.09500122	92.83599854	0	0	0	1.0
362	30.6760006	64.09500122	92.83599854	0	0	0	1.0
[RightEye]
359	-30.6760006	64.09500122	92.83499908	0	0	0	1.0
360	-30.6760006	64.09500122	92.83499908	0	0	0	1.0
361	-30.6760006	64.09500122	92.83499908	0	0	0	1.0
362	-30.6760006	64.09500122	92.83499908	0	0	0	1.0
[LeftShoulder]
359	45.70400238	109.4599991	-26.28000069	2.065687895	-3.629068851	-22.71657753	1.0
360	45.70400238	109.4599991	-26.28000069	1.809450746	-2.477177858	-23.97907257	1.0
361	45.70400238	109.4599991	-26.28000069	1.673523188	-2.262526512	-22.72452545	1.0
362	45.70400238	109.4599991	-26.28000069	1.374186039	-1.612880826	-20.4994812	1.0
[LeftArm]
359	105.923996	-5.24600029	-22.32099915	26.61935425	-52.31584549	-39.09943771	1.0
360	105.923996	-5.24600029	-22.32099915	20.61606598	-52.66795731	-36.88414001	1.0
361	105.923996	-5.24600029	-22.32099915	12.47550488	-53.41212845	-35.54683685	1.0
362	105.923996	-5.24600029	-22.32099915	3.372343063	-55.45001602	-34.78195572	1.0
[LeftForeArm]
359	278.414978	-0.0009999999311	0	9.91901652e-06	-78.34738922	-0.0002525498567	1.0
360	278.414978	-0.0009999999311	0	1.000749489e-05	-83.61356354	-0.0003009410284	1.0
361	278.414978	-0.0009999999311	0	0.000112934089	-87.44432068	-0.0003036472481	1.0
362	278.414978	-0.0009999999311	0	-0.0001738385618	-88.75286865	-0.0005945691955	1.0
[LeftHand]
359	283.2879944	0	0	28.90379715	8.545485497	15.95589733	1.0
360	283.2879944	0	0	30.43719864	7.287705421	17.12987137	1.0
361	283.2879944	0	0	31.90652084	6.962128162	16.99781418	1.0
362	283.2879944	0	0	32.67361069	7.954548836	16.51391792	1.0
[LeftHandThumb1]
359	24.6609993	-15.75	26.8239994	3.583988905	10.92544079	3.27715683	1.0
360	24.6609993	-15.75	26.8239994	3.390256882	11.27001381	4.178344727	1.0
361	24.6609993	-15.75	26.8239994	3.287532568	11.50618172	4.723960876	1.0
362	24.6609993	-15.75	26.8239994	3.284318447	11.6241827	4.880905151	1.0
[LeftHandThumb2]
359	32.29800034	-18.64699936	18.64699936	1.211391449	-0.1874757856	-1.054782391	1.0
360	32.29800034	-18.64699936	18.64699936	1.211396098	-0.1874613911	-1.054780483	1.0
361	32.29800034	-18.64699936	18.64699936	1.211428046	-0.1874228567	-1.05477798	1.0
362	32.29800034	-18.64699936	18.64699936	1.211451054	-0.1873384416	-1.054763079	1.0
[LeftHandThumb3]
359	26.52600098	-15.31499958	15.31499958	-3.06116128	-2.357903004	3.280731678	1.0
360	26.52600098	-15.31499958	15.31499958	-3.37101841	-2.83143568	3.384434462	1.0
361	26.52600098	-15.31499958	15.31499958	-3.659100533	-3.272501945	3.485168695	1.0
362	26.52600098	-15.31499958	15.31499958	-3.818742752	-3.518108845	3.54327631	1.0
[LeftHandThumb4]
359	19.54599953	-11.28499985	11.28499985	0	0	0	1.0
360	19.54599953	-11.28499985	11.28499985	0	0	0	1.0
361	19.54599953	-11.28499985	11.28499985	0	0	0	1.0
362	19.54599953	-11.28499985	11.28499985	0	0	0	1.0
[LeftHandIndex1]
359	91.09299469	-5.170999527	22.60099792	-0.3025274575	-2.460062504	-17.55930901	1.0
360	91.09299469	-5.170999527	22.60099792	-0.167430073	-2.051871061	-13.15759659	1.0
361	91.09299469	-5.170999527	22.60099792	-0.08571697026	-1.478896022	-9.325951576	1.0
362	91.09299469	-5.170999527	22.60099792	-0.04053961858	-1.081093073	-6.449119091	1.0
[LeftHandIndex2]
359	36.76399994	0	0	-1.064515709e-05	6.611879598e-06	-6.401530754e-06	1.0
360	36.76399994	0	0	4.171411092e-06	2.683608727e-06	-9.994881111e-06	1.0
361	36.76399994	0	0	8.861616152e-06	-9.108925951e-06	-1.820668149e-05	1.0
362	36.76399994	0	0	9.941624739e-06	5.659065664e-06	-7.261670544e-05	1.0
[LeftHandIndex3]
359	28.83100128	0	0	-0.07396433502	1.006682754	-8.404511452	1.0
360	28.83100128	0	0	-0.07439961284	1.00958693	-8.428847313	1.0
361	28.83100128	0	0	-0.07497287542	1.013461471	-8.461362839	1.0
362	28.83100128	0	0	-0.07633400708	1.022606492	-8.538430214	1.0
[LeftHandIndex4]
359	23.92700005	0	0	0	0	0	1.0
360	23.92700005	0	0	0	0	0	1.0
361	23.92700005	0	0	0	0	0	1.0
362	23.92700005	0	0	0	0	0	1.0
[LeftHandMiddle1]
359	95.33399963	0	0	-0.3014731407	4.74383688	-17.21601295	1.0
360	95.33399963	0	0	-0.1783154756	4.807904243	-13.46714211	1.0
361	95.33399963	0	0	-0.08775600046	5.02020216	-9.917881966	1.0
362	95.33399963	0	0	-0.03224848211	5.114821911	-7.023910999	1.0
[LeftHandMiddle2]
359	36.98199844	0	0	-0.001489557442	0.1362820268	-1.133690119	1.0
360	36.98199844	0	0	-2.3538596e-05	0.03738651797	-0.3110158145	1.0
361	36.98199844	0	0	-1.973034074e-07	-5.551815775e-05	-6.312534242e-05	1.0
362	36.98199844	0	0	1.162128319e-05	-0.0009504094487	0.007255431265	1.0
[LeftHandMiddle3]
359	29.50900078	0	0	-0.06541600823	0.9470571876	-7.903327942	1.0
360	29.50900078	0	0	-0.06185113639	0.9210406542	-7.684844017	1.0
361	29.50900078	0	0	-0.05967393517	0.9046349525	-7.547109127	1.0
362	29.50900078	0	0	-0.05939292163	0.9024311304	-7.528631687	1.0
[LeftHandMiddle4]
359	28.3390007	0	0	0	0	0	1.0
360	28.3390007	0	0	0	0	0	1.0
361	28.3390007	0	0	0	0	0	1.0
362	28.3390007	0	0	0	0	0	1.0
[LeftHandRing1]
359	91.04499817	-0.4390000105	-18.65100098	-0.2219958156	12.67180634	-17.87809944	1.0
360	91.04499817	-0.4390000105	-18.65100098	-0.08085789531	12.55537987	-13.89371681	1.0
361	91.04499817	-0.4390000105	-18.65100098	0.03034117073	12.43479633	-9.796762466	1.0
362	91.04499817	-0.4390000105	-18.65100098	0.0969960466	12.24263287	-6.204638958	1.0
[LeftHandRing2]
359	31.54000092	0	0	-0.002685984364	0.1878127307	-1.562480927	1.0
360	31.54000092	0	0	-0.0003446006158	0.07316420227	-0.6086159348	1.0
361	31.54000092	0	0	-7.226348316e-06	-1.810970934e-05	-1.440976212e-05	1.0
362	31.54000092	0	0	1.102414626e-05	-0.001575033064	0.01297401357	1.0
[LeftHandRing3]
359	29.37700081	0	0	-0.06893941015	0.972065866	-8.113391876	1.0
360	29.37700081	0	0	-0.06657426059	0.955362618	-7.97304678	1.0
361	29.37700081	0	0	-0.06511126459	0.9447979927	-7.884298325	1.0
362	29.37700081	0	0	-0.06482791901	0.9426892996	-7.86658144	1.0
[LeftHandRing4]
359	26.47500038	0	0	0	0	0	1.0
360	26.47500038	0	0	0	0	0	1.0
361	26.47500038	0	0	0	0	0	1.0
362	26.47500038	0	0	0	0	0	1.0
[LeftHandPinky1]
359	80.77799988	-4.887000084	-38.06099701	0.2913989723	27.14624023	-18.98416328	1.0
360	80.77799988	-4.887000084	-38.06099701	0.4957974553	26.75881195	-13.82144165	1.0
361	80.77799988	-4.887000084	-38.06099701	0.6500633359	26.28741646	-8.215510368	1.0
362	80.77799988	-4.887000084	-38.06099701	0.7209434509	25.7660923	-3.102568388	1.0
[LeftHandPinky2]
359	36	0	0	0.03640043363	-4.023055553	-0.770180285	1.0
360	36	0	0	0.02493621409	-4.04272604	-0.6069740057	1.0
361	36	0	0	0.01707919128	-4.056125641	-0.4956032932	1.0
362	36	0	0	0.0165096093	-4.057066917	-0.4877673686	1.0
[LeftHandPinky3]
359	21.14200211	0	0	-0.05555071309	0.8729810715	-7.281527042	1.0
360	21.14200211	0	0	-0.05341546983	0.8561537266	-7.140390396	1.0
361	21.14200211	0	0	-0.05250679702	0.8488206863	-7.078901768	1.0
362	21.14200211	0	0	-0.05295875296	0.8524750471	-7.109577179	1.0
[LeftHandPinky4]
359	19.75699997	0	0	0	0	0	1.0
360	19.75699997	0	0	0	0	0	1.0
361	19.75699997	0	0	0	0	0	1.0
362	19.75699997	0	0	0	0	0	1.0
[RightShoulder]
359	-45.70000076	109.4620056	-26.28000069	0.03817577288	-3.132563114	-0.6313487291	1.0
360	-45.70000076	109.4620056	-26.28000069	0.1076586246	-2.282649517	0.6647613049	1.0
361	-45.70000076	109.4620056	-26.28000069	0.1602669209	-1.271153927	-1.452237725	1.0
362	-45.70000076	109.4620056	-26.28000069	0.105425857	-0.561398387	-5.55048275	1.0
[RightArm]
359	-105.9280014	-5.248000145	-22.32099915	-59.72907257	17.16231346	39.13087845	1.0
360	-105.9280014	-5.248000145	-22.32099915	-58.90165329	12.78820419	42.26699066	1.0
361	-105.9280014	-5.248000145	-22.32099915	-58.17966461	9.813686371	36.12049103	1.0
362	-105.9280014	-5.248000145	-22.32099915	-56.29320526	10.25583935	26.31758499	1.0
[RightForeArm]
359	-278.414978	0	0	5.428010354e-06	111.6259995	-1.403453643e-05	1.0
360	-278.414978	0	0	-1.3066674e-05	117.3571243	-1.504511692e-05	1.0
361	-278.414978	0	0	0	108.7352142	-1.525878906e-05	1.0
362	-278.414978	0	0	-0.0001031364445	91.39723206	-2.864508497e-05	1.0
[RightHand]
359	-283.2879944	0	0.0009999999311	34.3333931	7.988380432	-23.62869453	1.0
360	-283.2879944	0	0.0009999999311	34.15253067	9.162321091	-25.78990936	1.0
361	-283.2879944	0	0.0009999999311	33.38059998	7.854478359	-24.85897446	1.0
362	-283.2879944	0	0.0009999999311	31.62085724	5.519481659	-21.54868317	1.0
[RightHandPinky1]
359	-80.76699829	-4.885000229	-38.06000137	0.3255186975	-18.36605644	4.272655487	1.0
360	-80.76699829	-4.885000229	-38.06000137	0.3480984271	-17.82880974	-0.1264517307	1.0
361	-80.76699829	-4.885000229	-38.06000137	0.3403357267	-17.56799698	-2.24099946	1.0
362	-80.76699829	-4.885000229	-38.06000137	0.3482180536	-17.72651291	-0.944173336	1.0
[RightHandPinky2]
359	-36	0	0.0009999999311	-0.854571104	-3.332365036	28.68816566	1.0
360	-36	0	0.0009999999311	-0.5135221481	-2.617128134	22.13420868	1.0
361	-36	0	0.0009999999311	-0.2612745762	-1.888015628	15.76911068	1.0
362	-36	0	0.0009999999311	-0.1513044983	-1.441697478	11.97784519	1.0
[RightHandPinky3]
359	-21.14200211	0	0	-0.2565137148	-1.871430039	15.61569023	1.0
360	-21.14200211	0	0	-0.1397682875	-1.372605681	11.38785362	1.0
361	-21.14200211	0	0	-0.03412611037	-0.6881477237	5.678228378	1.0
362	-21.14200211	0	0	-0.001942410017	-0.1060175747	0.8735459447	1.0
[RightHandPinky4]
359	-19.75699997	0	0	0	0	0	1.0
360	-19.75699997	0	0	0	0	0	1.0
361	-19.75699997	0	0	0	0	0	1.0
362	-19.75699997	0	0	0	0	0	1.0
[RightHandRing1]
359	-91.03599548	-0.4390000105	-18.65100098	0.05397530273	-7.153385162	-1.663395524	1.0
360	-91.03599548	-0.4390000105	-18.65100098	0.02976875938	-6.580940723	-4.852760315	1.0
361	-91.03599548	-0.4390000105	-18.65100098	0.006439964753	-6.225486755	-6.518944263	1.0
362	-91.03599548	-0.4390000105	-18.65100098	0.01468489505	-6.192561626	-5.867311001	1.0
[RightHandRing2]
359	-31.54000092	0	0	-0.0474639833	-0.7971785665	6.583086014	1.0
360	-31.54000092	0	0	-0.008928244002	-0.3516779542	2.897583008	1.0
361	-31.54000092	0	0	2.088009069e-06	2.14446473e-07	4.164419079e-05	1.0
362	-31.54000092	0	0	0.0002476565423	0.007303937338	-0.06022579223	1.0
[RightHandRing3]
359	-29.37700081	0	0	-3.727971077	-1.104110837	9.134867668	1.0
360	-29.37700081	0	0	-3.08710885	-0.7182582021	5.92572403	1.0
361	-29.37700081	0	0	-2.097737312	-0.2431457639	1.988143563	1.0
362	-29.37700081	0	0	-1.117214322	0.1141204685	-0.9429932237	1.0
[RightHandRing4]
359	-26.47500038	0	0	0	0	0	1.0
360	-26.47500038	0	0	0	0	0	1.0
361	-26.47500038	0	0	0	0	0	1.0
362	-26.47500038	0	0	0	0	0	1.0
[RightHandMiddle1]
359	-95.32500458	0	0	-0.02351777069	2.178353786	-4.998804569	1.0
360	-95.32500458	0	0	-0.06488254666	2.966752052	-8.113117218	1.0
361	-95.32500458	0	0	-0.09867219627	3.527966022	-9.94011116	1.0
362	-95.32500458	0	0	-0.09268748015	3.756940842	-9.748076439	1.0
[RightHandMiddle2]
359	-36.98199844	0	0	-0.002242115093	-0.1544010788	1.271904945	1.0
360	-36.98199844	0	0	0.0003651648294	0.01801127754	-0.1484287977	1.0
361	-36.98199844	0	0	9.568216797e-08	-7.198035746e-06	3.017781637e-05	1.0
362	-36.98199844	0	0	1.346490421e-07	-2.826948958e-06	5.458827582e-05	1.0
[RightHandMiddle3]
359	-29.50900078	0	0	-2.791954041	-0.2579989135	2.108317137	1.0
360	-29.50900078	0	0	-2.2342062	-0.04132251814	0.3229631782	1.0
361	-29.50900078	0	0	-1.413766861	0.1915137917	-1.599875689	1.0
362	-29.50900078	0	0	-0.6187204719	0.3161718249	-2.623245716	1.0
[RightHandMiddle4]
359	-28.3390007	0	0.0009999999311	0	0	0	1.0
360	-28.3390007	0	0.0009999999311	0	0	0	1.0
361	-28.3390007	0	0.0009999999311	0	0	0	1.0
362	-28.3390007	0	0.0009999999311	0	0	0	1.0
[RightHandIndex1]
359	-91.08300018	-5.167999744	22.60099792	0.1026704833	11.24862576	-4.310816288	1.0
360	-91.08300018	-5.167999744	22.60099792	0.07529591769	12.39392281	-7.739425182	1.0
361	-91.08300018	-5.167999744	22.60099792	0.04777395725	13.26793575	-9.972491264	1.0
362	-91.08300018	-5.167999744	22.60099792	0.05371327698	13.74953842	-10.25334358	1.0
[RightHandIndex2]
359	-36.76399994	0	0	2.881103137e-05	0.001470707823	-0.01207385305	1.0
360	-36.76399994	0	0	2.535448175e-06	0.0003680077498	-0.002938946243	1.0
361	-36.76399994	0	0	-3.360976052e-06	4.524822543e-06	6.017329724e-05	1.0
362	-36.76399994	0	0	7.089635801e-06	0.003421863308	-0.02804771438	1.0
[RightHandIndex3]
359	-28.83100128	0	0	-0.01193624921	0.4069275856	-3.354090929	1.0
360	-28.83100128	0	0	-0.01575095952	0.4682135284	-3.859901667	1.0
361	-28.83100128	0	0	-0.01770683937	0.4960238039	-4.089616776	1.0
362	-28.83100128	0	0	-0.01318895444	0.4319852591	-3.560805798	1.0
[RightHandIndex4]
359	-23.92700005	0	0	0	0	0	1.0
360	-23.92700005	0	0	0	0	0	1.0
361	-23.92700005	0	0	0	0	0	1.0
362	-23.92700005	0	0	0	0	0	1.0
[RightHandThumb1]
359	-24.64799881	-15.72700024	26.82600021	4.653728008	-13.9416647	-15.29152393	1.0
360	-24.64799881	-15.72700024	26.82600021	5.008302212	-14.49532413	-15.88943863	1.0
361	-24.64799881	-15.72700024	26.82600021	5.243663311	-14.7322197	-15.99917889	1.0
362	-24.64799881	-15.72700024	26.82600021	5.385232449	-14.59923744	-15.46360874	1.0
[RightHandThumb2]
359	-32.29800034	-18.64699936	18.64699936	2.060266972	0.337779969	1.677860856	1.0
360	-32.29800034	-18.64699936	18.64699936	2.06030345	0.3387703896	1.674517035	1.0
361	-32.29800034	-18.64699936	18.64699936	2.060348511	0.3396522105	1.671546578	1.0
362	-32.29800034	-18.64699936	18.64699936	2.06079483	0.3395174146	1.67263484	1.0
[RightHandThumb3]
359	-26.52600098	-15.31399918	15.31399918	-4.846837044	5.639831066	-3.345101118	1.0
360	-26.52600098	-15.31399918	15.31399918	-4.76017952	5.506594658	-3.318887234	1.0
361	-26.52600098	-15.31399918	15.31399918	-4.760885239	5.508423805	-3.3199265	1.0
362	-26.52600098	-15.31399918	15.31399918	-4.804056168	5.576782703	-3.329477787	1.0
[RightHandThumb4]
359	-19.54599953	-11.28499985	11.28499985	0	0	0	1.0
360	-19.54599953	-11.28499985	11.28499985	0	0	0	1.0
361	-19.54599953	-11.28499985	11.28499985	0	0	0	1.0
362	-19.54599953	-11.28499985	11.28499985	0	0	0	1.0
[LeftUpLeg]
359	82.07800293	-67.51699829	-15.99599934	2.936573029	-13.06429386	3.633695126	1.0
360	82.07800293	-67.51699829	-15.99599934	3.229855776	-11.19355297	3.561335564	1.0
361	82.07800293	-67.51699829	-15.99599934	4.938871861	-5.648348808	5.425537109	1.0
362	82.07800293	-67.51699829	-15.99599934	6.272087574	-4.922882557	6.041595459	1.0
[LeftLeg]
359	0	-443.7049866	2.845999956	50.07750702	4.762097836	-3.986834049	1.0
360	0	-443.7049866	2.845999956	51.83591461	7.863999367	-6.688405991	1.0
361	0	-443.7049866	2.845999956	50.73204803	5.839030266	-8.51460743	1.0
362	0	-443.7049866	2.845999956	46.44581223	4.183247089	-8.144649506	1.0
[LeftFoot]
359	0	-444.2789917	-29.8219986	-44.15536499	1.803126216	-12.15030289	1.0
360	0	-444.2789917	-29.8219986	-44.8344841	2.103919506	-9.720396042	1.0
361	0	-444.2789917	-29.8219986	-44.33944702	2.35324192	-8.039082527	1.0
362	0	-444.2789917	-29.8219986	-42.07205963	2.150518179	-7.852138519	1.0
[LeftToeBase]
359	0	-87.28699493	107.1060028	-1.060001969	-4.188929597e-05	-0.0002239787427	1.0
360	0	-87.28699493	107.1060028	-1.381182313	-1.08302138e-05	2.765632416e-06	1.0
361	0	-87.28699493	107.1060028	-1.4360255	1.564661397e-05	-4.286196997e-08	1.0
362	0	-87.28699493	107.1060028	-1.462276936	-1.881854223e-05	1.944053793e-06	1.0
[RightUpLeg]
359	-82.07800293	-67.51699829	-15.99599934	-32.80128479	4.281922817	-16.99088478	1.0
360	-82.07800293	-67.51699829	-15.99599934	-32.61046982	0.145172134	-16.35136414	1.0
361	-82.07800293	-67.51699829	-15.99599934	-31.39399529	-4.16173315	-14.59615421	1.0
362	-82.07800293	-67.51699829	-15.99599934	-29.53055573	-5.711764336	-15.88637543	1.0
[RightLeg]
359	0	-443.7049866	2.861999989	13.41172981	-7.803689003	-11.03935909	1.0
360	0	-443.7049866	2.861999989	11.24263763	-8.483942032	-9.271962166	1.0
361	0	-443.7049866	2.861999989	9.138865471	-9.239261627	-5.784536362	1.0
362	0	-443.7049866	2.861999989	8.141913414	-9.686833382	-2.801885843	1.0
[RightFoot]
359	0	-444.2770081	-29.83799934	-9.989180565	-22.48324585	1.456776619	1.0
360	0	-444.2770081	-29.83799934	-7.666172504	-18.09657097	-1.050130606	1.0
361	0	-444.2770081	-29.83799934	-10.00887871	-12.44971848	0.8187721372	1.0
362	0	-444.2770081	-29.83799934	-9.411424637	-14.27541447	3.65061903	1.0
[RightToeBase]
359	0	-87.28699493	107.1060028	7.465016842	-2.423077967e-05	6.256999313e-06	1.0
360	0	-87.28699493	107.1060028	8.150500298	7.03072601e-06	4.081285283e-07	1.0
361	0	-87.28699493	107.1060028	8.954293251	-5.747378509e-06	-1.451995286e-05	1.0
362	0	-87.28699493	107.1060028	9.54787159	9.123369637e-06	5.180003427e-06	1.0
[EndOfFile]
